<svg xmlns="http://www.w3.org/2000/svg" version="1.1" xmlns:xlink="http://www.w3.org/1999/xlink" xmlns:svgjs="http://svgjs.dev/svgjs" width="1500" height="1500" viewBox="0 0 1500 1500"><rect width="1500" height="1500" fill="#ffffff"></rect><g transform="matrix(0.6666666666666666,0,0,0.6666666666666666,249.39393939393938,666.323159882102)"><svg viewBox="0 0 396 66" data-background-color="#ffffff" preserveAspectRatio="xMidYMid meet" height="250" width="1500" xmlns="http://www.w3.org/2000/svg" xmlns:xlink="http://www.w3.org/1999/xlink"><g id="tight-bounds" transform="matrix(1,0,0,1,0.2400000000000091,0.13602868668758106)"><svg viewBox="0 0 395.52 65.72794262662482" height="65.72794262662482" width="395.52"><g><svg viewBox="0 0 395.52 65.72794262662482" height="65.72794262662482" width="395.52"><g><svg viewBox="0 0 395.52 65.72794262662482" height="65.72794262662482" width="395.52"><g id="textblocktransform"><svg viewBox="0 0 395.52 65.72794262662482" height="65.72794262662482" width="395.52" id="textblock"><g><svg viewBox="0 0 395.52 65.72794262662482" height="65.72794262662482" width="395.52"><g transform="matrix(1,0,0,1,0,0)"><svg width="395.52" viewBox="3.25 -35.45 217.85 36.21" height="65.72794262662482" data-palette-color="#2a2c35"><path d="M31.3-17.5L31.3-17.5Q31.3-15.09 30.68-12.85 30.05-10.62 28.91-8.68 27.76-6.74 26.17-5.14 24.58-3.54 22.63-2.39 20.68-1.25 18.44-0.62 16.21 0 13.79 0L13.79 0 3.25 0 3.25-35.01 13.79-35.01Q16.21-35.01 18.44-34.39 20.68-33.76 22.63-32.62 24.58-31.47 26.17-29.87 27.76-28.27 28.91-26.33 30.05-24.39 30.68-22.16 31.3-19.92 31.3-17.5ZM24.29-17.5L24.29-17.5Q24.29-19.68 23.47-21.58 22.66-23.49 21.23-24.91 19.8-26.34 17.88-27.17 15.97-28 13.79-28L13.79-28 10.3-28 10.3-7.01 13.79-7.01Q15.97-7.01 17.88-7.82 19.8-8.64 21.23-10.07 22.66-11.5 23.47-13.42 24.29-15.33 24.29-17.5ZM70.24-17.36L70.24-17.36Q70.24-14.87 69.59-12.56 68.94-10.25 67.77-8.24 66.6-6.23 64.94-4.57 63.28-2.91 61.28-1.72 59.27-0.54 56.96 0.11 54.64 0.76 52.15 0.76L52.15 0.76Q49.66 0.76 47.35 0.11 45.04-0.54 43.03-1.72 41.01-2.91 39.35-4.57 37.69-6.23 36.51-8.24 35.32-10.25 34.68-12.56 34.03-14.87 34.03-17.36L34.03-17.36Q34.03-19.85 34.68-22.17 35.32-24.49 36.51-26.49 37.69-28.49 39.35-30.15 41.01-31.81 43.03-32.98 45.04-34.16 47.35-34.8 49.66-35.45 52.15-35.45L52.15-35.45Q54.64-35.45 56.96-34.8 59.27-34.16 61.28-32.98 63.28-31.81 64.94-30.15 66.6-28.49 67.77-26.49 68.94-24.49 69.59-22.17 70.24-19.85 70.24-17.36ZM63.28-17.36L63.28-17.36Q63.28-19.65 62.4-21.69 61.52-23.73 60.02-25.23 58.52-26.73 56.48-27.61 54.44-28.49 52.15-28.49L52.15-28.49Q49.83-28.49 47.8-27.61 45.77-26.73 44.26-25.23 42.75-23.73 41.87-21.69 40.99-19.65 40.99-17.36L40.99-17.36Q40.99-15.06 41.87-13.05 42.75-11.04 44.26-9.52 45.77-8.01 47.8-7.13 49.83-6.25 52.15-6.25L52.15-6.25Q54.44-6.25 56.48-7.13 58.52-8.01 60.02-9.52 61.52-11.04 62.4-13.05 63.28-15.06 63.28-17.36ZM109.13-17.36L109.13-17.36Q109.13-14.87 108.48-12.56 107.83-10.25 106.66-8.24 105.49-6.23 103.83-4.57 102.17-2.91 100.17-1.72 98.16-0.54 95.84 0.11 93.53 0.76 91.04 0.76L91.04 0.76Q88.54 0.76 86.24 0.11 83.93-0.54 81.92-1.72 79.9-2.91 78.24-4.57 76.58-6.23 75.4-8.24 74.21-10.25 73.57-12.56 72.92-14.87 72.92-17.36L72.92-17.36Q72.92-19.85 73.57-22.17 74.21-24.49 75.4-26.49 76.58-28.49 78.24-30.15 79.9-31.81 81.92-32.98 83.93-34.16 86.24-34.8 88.54-35.45 91.04-35.45L91.04-35.45Q93.53-35.45 95.84-34.8 98.16-34.16 100.17-32.98 102.17-31.81 103.83-30.15 105.49-28.49 106.66-26.49 107.83-24.49 108.48-22.17 109.13-19.85 109.13-17.36ZM102.17-17.36L102.17-17.36Q102.17-19.65 101.29-21.69 100.41-23.73 98.91-25.23 97.41-26.73 95.37-27.61 93.33-28.49 91.04-28.49L91.04-28.49Q88.72-28.49 86.69-27.61 84.66-26.73 83.15-25.23 81.64-23.73 80.76-21.69 79.88-19.65 79.88-17.36L79.88-17.36Q79.88-15.06 80.76-13.05 81.64-11.04 83.15-9.52 84.66-8.01 86.69-7.13 88.72-6.25 91.04-6.25L91.04-6.25Q93.33-6.25 95.37-7.13 97.41-8.01 98.91-9.52 100.41-11.04 101.29-13.05 102.17-15.06 102.17-17.36ZM127.73-28L120.72-28 120.72-13.99 127.73-13.99Q129.17-13.99 130.44-14.54 131.71-15.09 132.66-16.04 133.61-16.99 134.16-18.27 134.71-19.56 134.71-21L134.71-21Q134.71-22.44 134.16-23.72 133.61-25 132.66-25.95 131.71-26.9 130.44-27.45 129.17-28 127.73-28L127.73-28ZM120.72-7.01L120.72 0 113.71 0 113.71-35.01 127.73-35.01Q129.66-35.01 131.44-34.51 133.22-34.01 134.77-33.09 136.32-32.18 137.6-30.9 138.88-29.61 139.8-28.05 140.72-26.49 141.22-24.71 141.72-22.92 141.72-21L141.72-21Q141.72-19.19 141.26-17.48 140.81-15.77 139.97-14.23 139.13-12.7 137.91-11.4 136.69-10.11 135.17-9.16L135.17-9.16 139.06 0 131.61 0 128.56-7.06 120.72-7.01ZM174.31-10.5L174.31-10.5Q174.31-8.33 173.48-6.42 172.65-4.52 171.22-3.09 169.79-1.66 167.89-0.83 165.98 0 163.81 0L163.81 0 146.3 0 146.3-35.01 163.81-35.01Q165.98-35.01 167.89-34.18 169.79-33.35 171.22-31.92 172.65-30.49 173.48-28.59 174.31-26.68 174.31-24.51L174.31-24.51Q174.31-23.54 174.04-22.51 173.77-21.48 173.28-20.53 172.79-19.58 172.11-18.8 171.43-18.02 170.6-17.5L170.6-17.5Q171.45-17.04 172.13-16.25 172.82-15.45 173.31-14.5 173.79-13.55 174.05-12.51 174.31-11.47 174.31-10.5ZM153.31-13.99L153.31-7.01 163.81-7.01Q164.54-7.01 165.18-7.28 165.81-7.54 166.29-8.02 166.76-8.5 167.03-9.13 167.3-9.77 167.3-10.5L167.3-10.5Q167.3-11.23 167.03-11.87 166.76-12.5 166.29-12.98 165.81-13.45 165.18-13.72 164.54-13.99 163.81-13.99L163.81-13.99 153.31-13.99ZM153.31-28L153.31-21 163.81-21Q164.54-21 165.18-21.26 165.81-21.53 166.29-22.01 166.76-22.49 167.03-23.13 167.3-23.78 167.3-24.51L167.3-24.51Q167.3-25.24 167.03-25.88 166.76-26.51 166.29-26.99 165.81-27.47 165.18-27.73 164.54-28 163.81-28L163.81-28 153.31-28ZM186.61-35.01L186.61 0 179.6 0 179.6-35.01 186.61-35.01ZM221.1-35.01L221.1 0 213.61 0 200.11-23.05 200.11 0 193.1 0 193.1-35.01 200.6-35.01 214.1-11.94 214.1-35.01 221.1-35.01Z" opacity="1" transform="matrix(1,0,0,1,0,0)" fill="#000000" class="wordmark-text-0" data-fill-palette-color="primary" id="text-0"></path></svg></g></svg></g></svg></g></svg></g></svg></g><defs></defs></svg><rect width="395.52" height="65.72794262662482" fill="none" stroke="none" visibility="hidden"></rect></g></svg></g></svg>